<svg width="14" height="14" viewBox="0 0 14 14" fill="none" xmlns="http://www.w3.org/2000/svg">
<path d="M13.9688 5.5L9.09375 10.3437L8.40625 9.65625L12.0313 6H4.5C3.875 6 3.29167 6.15625 2.75 6.46875C2.20833 6.78125 1.78125 7.20833 1.46875 7.75C1.15625 8.29167 1 8.875 1 9.5C1 10.125 1.15625 10.7083 1.46875 11.25C1.78125 11.7917 2.20833 12.2188 2.75 12.5313C3.29167 12.8438 3.875 13 4.5 13V14C3.6875 14 2.9375 13.7917 2.25 13.375C1.5625 12.9792 1.01042 12.4375 0.59375 11.75C0.197917 11.0625 0 10.3125 0 9.5C0 8.6875 0.197917 7.9375 0.59375 7.25C1.01042 6.5625 1.5625 6.02083 2.25 5.625C2.9375 5.20833 3.6875 5 4.5 5H12.0313L8.40625 1.34375L9.09375 0.65625L13.9688 5.5Z" fill="#C5C5C5"/>
</svg>
