<svg width="23" height="23" viewBox="0 0 23 23" fill="none" xmlns="http://www.w3.org/2000/svg">
  <path fill-rule="evenodd" clip-rule="evenodd" d="M1 0C0.447701 0 0 0.44772 0 1V17C0 17.5523 0.447701 18 1 18H9.9208C9.8788 17.7596 9.8571 17.4759 9.8571 17.1429C9.8571 17.0729 9.8581 17.0033 9.86 16.9338V16.93C9.86 13.453 12.37 10.5622 15.6769 9.9707C16.0827 9.8961 16.5005 9.8571 16.9271 9.8571C17.2885 9.8571 17.6435 9.8851 17.9903 9.939C20.1194 10.2591 21.9376 11.5288 23 13.303V1C23 0.44772 22.5523 0 22 0H1ZM21 2H16V5H21V2ZM9 7H14V10H9V7ZM7 12H2V15H7V12ZM2 2H7V5H2V2ZM14 2H9V5H14V2ZM2 7H7V10H2V7ZM22.917 18C22.441 20.8377 19.973 23 17 23C14.027 23 11.559 20.8377 11.083 18C11.0284 17.6748 11 17.3407 11 17C11 13.6863 13.6863 11 17 11C20.3137 11 23 13.6863 23 17C23 17.3407 22.9716 17.6748 22.917 18ZM18.7999 18L16.1357 20.6642L13.4715 18L12.4286 16.9571L13.8428 15.5429L16.1357 17.8357L20.4286 13.5429L21.8428 14.9571L18.7999 18Z" fill="white"/>
</svg>
