<svg xmlns="http://www.w3.org/2000/svg" width="50" height="40" viewBox="0 0 50 40">
  <g fill="#FFF" fill-rule="evenodd" transform="translate(13 9)">
    <path d="M0,1 C0,0.44772 0.4477,0 1,0 L22,0 C22.5523,0 23,0.44772 23,1 L23,13.303 C23.635,14.3634 24,15.60371 24,16.93 C24,17.0560448 24,17.4127114 24,18 L17,18 L9.9404,18 L1,18 C0.4477,18 0,17.5523 0,17 L0,1 Z M16,2 L21,2 L21,5 L16,5 L16,2 Z M14,7 L9,7 L9,10 L14,10 L14,7 Z M2,12 L7,12 L7,15 L2,15 L2,12 Z M7,2 L2,2 L2,5 L7,5 L7,2 Z M9,2 L14,2 L14,5 L9,5 L9,2 Z M7,7 L2,7 L2,10 L7,10 L7,7 Z M17.9903,9.939 C21.3919,10.4505 24,13.3857 24,16.93 L24,18 L9.9404,18 L9.9208,18 C9.8788,17.7596 9.8571,17.4759 9.8571,17.1429 C9.8571,17.0729 9.8581,17.0033 9.86,16.9338 L9.86,16.93 C9.86,13.453 12.37,10.5622 15.6769,9.9707 C16.0827,9.8961 16.5005,9.8571 16.9271,9.8571 C17.2885,9.8571 17.6435,9.8851 17.9903,9.939 Z"/>
    <path d="M17,23 C20.3137,23 23,20.3137 23,17 C23,13.6863 20.3137,11 17,11 C13.6863,11 11,13.6863 11,17 C11,20.3137 13.6863,23 17,23 Z M16.1357,20.6642 L21.8428,14.9571 L20.4286,13.5429 L16.1357,17.8357 L13.8428,15.5429 L12.4286,16.9571 L16.1357,20.6642 Z"/>
  </g>
</svg>
