<svg width="50" height="40" viewBox="0 0 50 40" fill="none" xmlns="http://www.w3.org/2000/svg">
<path fill-rule="evenodd" clip-rule="evenodd" d="M37 7H12L12 26H23C23 21.5817 26.5817 18 31 18C33.3894 18 35.5341 19.0475 37 20.7084V7ZM38 22.124V7C38 6.44772 37.5523 6 37 6H12C11.4477 6 11 6.44772 11 7V26C11 26.5523 11.4477 27 12 27H23.0619C23.554 30.9463 26.9204 34 31 34C35.4183 34 39 30.4183 39 26C39 24.5937 38.6372 23.2722 38 22.124ZM29.6667 8.33333H35.5V11.8333H29.6667V8.33333ZM27.3333 14.1667H21.5V17.6667H27.3333V14.1667ZM13.3333 20H19.1667V23.5H13.3333V20ZM19.1667 8.33333H13.3333V11.8333H19.1667V8.33333ZM21.5 8.33333H27.3333V11.8333H21.5V8.33333ZM19.1667 14.1667H13.3333V17.6667H19.1667V14.1667Z" fill="#333333"/>
<circle cx="31" cy="26" r="8" fill="white"/>
<path fill-rule="evenodd" clip-rule="evenodd" d="M31 34C35.4183 34 39 30.4183 39 26C39 21.5817 35.4183 18 31 18C26.5817 18 23 21.5817 23 26C23 30.4183 26.5817 34 31 34ZM29.825 30.1082L36.4832 23.4499L34.8333 21.8L29.825 26.8084L27.1499 24.1333L25.5 25.7833L29.825 30.1082Z" fill="#333333"/>
</svg>
