<svg width="40" height="40" xmlns="http://www.w3.org/2000/svg">
 <g>
  <title>background</title>
  <rect x="-1" y="-1" width="42" height="42" id="canvas_background" fill="none"/>
 </g>

 <g>
  <path stroke="null" fill="#0078d4" d="m25.063257,10.463998l0,17.801771l-15.544109,-2.308972l5.429924,1.828114l0.006736,0.011915l0.010876,-0.006217l10.096573,3.400237l5.181189,-2.155593l0,-16.415662l-5.181189,-2.155593zm-12.953247,11.011141l-1.554518,-0.371013l0,-3.301788l1.124436,-1.431705l4.323101,-1.678355l0,-1.210451l3.361377,2.644226l-7.254395,1.462798l0,3.886289zm7.254395,0.971568l0,-6.368841l3.109029,-0.472571l0,7.184442l-2.850457,2.35146l-4.490472,-1.468496l0,1.473162l-3.022495,-3.670724l7.254395,0.971568z" id="svg_1"/>
 </g>
</svg>