<svg width="13" height="14" viewBox="0 0 13 14" fill="none" xmlns="http://www.w3.org/2000/svg">
<path d="M6.5 0.857142C5.31994 0.857142 4.22693 1.14732 3.22098 1.72768C2.23438 2.30804 1.45089 3.10119 0.870536 4.10714C0.290179 5.09375 0 6.17708 0 7.35714C0 8.5372 0.290179 9.63021 0.870536 10.6362C1.45089 11.6228 2.23438 12.4063 3.22098 12.9866C4.22693 13.567 5.31994 13.8571 6.5 13.8571C7.68006 13.8571 8.76339 13.567 9.75 12.9866C10.756 12.4063 11.5491 11.6228 12.1295 10.6362C12.7098 9.63021 13 8.5372 13 7.35714C13 6.17708 12.7098 5.09375 12.1295 4.10714C11.5491 3.10119 10.756 2.30804 9.75 1.72768C8.76339 1.14732 7.68006 0.857142 6.5 0.857142ZM6.5 12.9286C6.1131 12.9286 5.73586 12.6771 5.3683 12.1741C5.00074 11.6711 4.70089 10.994 4.46875 10.1429H8.53125C8.29911 10.994 7.99926 11.6711 7.6317 12.1741C7.26414 12.6771 6.8869 12.9286 6.5 12.9286ZM4.29464 9.21429C4.19792 8.61458 4.14955 7.99554 4.14955 7.35714C4.14955 6.71875 4.19792 6.0997 4.29464 5.5H8.70536C8.80208 6.0997 8.85045 6.71875 8.85045 7.35714C8.85045 7.99554 8.80208 8.61458 8.70536 9.21429H4.29464ZM6.5 1.78571C6.8869 1.78571 7.26414 2.0372 7.6317 2.54018C7.99926 3.04315 8.29911 3.72024 8.53125 4.57143H4.46875C4.70089 3.72024 5.00074 3.04315 5.3683 2.54018C5.73586 2.0372 6.1131 1.78571 6.5 1.78571ZM9.63393 5.5H11.7522C11.965 6.11905 12.0714 6.73809 12.0714 7.35714C12.0714 7.97619 11.965 8.59524 11.7522 9.21429H9.63393C9.73066 8.61458 9.77902 7.99554 9.77902 7.35714C9.77902 6.71875 9.73066 6.0997 9.63393 5.5ZM11.317 4.57143H9.45982C9.22768 3.60417 8.89881 2.80134 8.47321 2.16295C9.07292 2.37574 9.61458 2.69494 10.0982 3.12054C10.6012 3.52679 11.0074 4.01042 11.317 4.57143ZM4.52679 2.16295C4.10119 2.80134 3.77232 3.60417 3.54018 4.57143H1.68304C1.99256 4.01042 2.38914 3.52679 2.87277 3.12054C3.37574 2.69494 3.92708 2.37574 4.52679 2.16295ZM1.24777 5.5H3.36607C3.26935 6.0997 3.22098 6.71875 3.22098 7.35714C3.22098 7.99554 3.26935 8.61458 3.36607 9.21429H1.24777C1.03497 8.59524 0.928571 7.97619 0.928571 7.35714C0.928571 6.73809 1.03497 6.11905 1.24777 5.5ZM1.68304 10.1429H3.54018C3.77232 11.1101 4.10119 11.9129 4.52679 12.5513C3.92708 12.3385 3.37574 12.029 2.87277 11.6228C2.38914 11.1972 1.99256 10.7039 1.68304 10.1429ZM8.47321 12.5513C8.89881 11.9129 9.22768 11.1101 9.45982 10.1429H11.317C11.0074 10.7039 10.6012 11.1972 10.0982 11.6228C9.61458 12.029 9.07292 12.3385 8.47321 12.5513Z" fill="#424242"/>
</svg>