<svg xmlns="http://www.w3.org/2000/svg" viewBox="0 0 448 448"><path d="M224 0c16.087 0 31.557 2 46.41 6.016 14.852 4.016 28.795 9.656 41.73 16.953a173.398 173.398 0 0 1 35.392 26.25c10.627 10.203 19.727 21.547 27.3 34.016s13.455 25.844 17.647 40.141c4.16 14.297 6.24 29.172 6.24 44.625v98c0 5.828-1.137 11.297-3.412 16.406s-5.395 9.547-9.327 13.344-8.58 6.781-13.877 8.969-10.987 3.28-17.064 3.28h-50.012l-.986-140h50.999c2.568 0 5.07.25 7.507.766a70.295 70.295 0 0 1 7.052 1.859c0-19.688-3.705-38.172-11.147-55.453s-17.647-32.375-30.582-45.281c-13-12.906-28.372-23.109-46.215-30.625C263.845 31.75 244.637 28 224 28c-13.357 0-26.227 1.672-38.675 5.031-12.447 3.359-24.05 8.063-34.807 14.109s-20.572 13.344-29.477 21.875c-8.84 8.531-16.445 17.969-22.75 28.328-6.272 10.359-11.18 21.516-14.657 33.469-3.477 11.953-5.232 24.359-5.232 37.188v2.625c2.275-.734 4.615-1.344 7.052-1.859s4.939-.766 7.507-.766h52.296l-.986 140h-36.75v28c0 7.734 1.527 14.984 4.55 21.766 3.022 6.781 7.215 12.719 12.512 17.828s11.472 9.109 18.557 12.031c7.02 2.922 14.592 4.375 22.62 4.375 0-3.938.747-7.578 2.275-10.938a28.777 28.777 0 0 1 6.24-8.859c2.665-2.547 5.752-4.563 9.23-6.016S190.785 364 194.88 364h58.24c4.095 0 7.897.734 11.375 2.188a30.008 30.008 0 0 1 9.23 6.016 28.822 28.822 0 0 1 6.24 8.859c1.527 3.359 2.275 7 2.275 10.938v28c0 3.938-.747 7.578-2.275 10.938a28.777 28.777 0 0 1-6.24 8.859 29.996 29.996 0 0 1-9.23 6.016c-3.477 1.453-7.28 2.188-11.375 2.188h-58.24c-4.095 0-7.897-.734-11.375-2.188s-6.565-3.469-9.23-6.016a28.822 28.822 0 0 1-6.24-8.859c-1.527-3.359-2.275-7-2.275-10.938-12.122 0-23.465-2.188-33.995-6.563-10.562-4.375-19.825-10.391-27.755-18.047-7.995-7.656-14.235-16.547-18.785-26.688C80.675 358.562 78.4 347.672 78.4 336v-30.625c-4.387-1.453-8.385-3.5-11.96-6.125a43.416 43.416 0 0 1-9.1-9.078c-2.47-3.422-4.452-7.219-5.915-11.375A39.068 39.068 0 0 1 49.28 266v-98c0-15.453 2.08-30.328 6.24-44.625 4.192-14.297 10.075-27.672 17.647-40.141 7.572-12.469 16.672-23.813 27.3-34.016s22.392-18.953 35.392-26.25c12.935-7.297 26.877-12.938 41.73-16.953C192.443 2 207.913 0 224 0z" /></svg>