<svg xmlns="http://www.w3.org/2000/svg" viewBox="0 0 448 448"><path d="M224 0C110.416 0 16.809 84.617 2.207 194.207c0 0-2.207 20.955-2.207 29.793 0 17.672 14.326 32 32 32 8.838 0 19.783-3.164 27.105-6.902C70.902 243.074 101.49 224 128 224c53.02 0 96 42.98 96 96 0 26.51-13.393 45.348-25 67-3.354 6.254-7 20.162-7 29 0 17.672 14.326 32 32 32 8.838 0 29.793-2.207 29.793-2.207C363.381 431.191 448 337.584 448 224 448 100.287 347.711 0 224 0zM96 192c-17.674 0-32-14.328-32-32 0-17.674 14.326-32 32-32s32 14.326 32 32c0 17.672-14.326 32-32 32zm96-64c-17.674 0-32-14.328-32-32 0-17.674 14.326-32 32-32s32 14.326 32 32c0 17.672-14.326 32-32 32zm128-32c17.674 0 32 14.326 32 32 0 17.672-14.326 32-32 32s-32-14.328-32-32c0-17.674 14.326-32 32-32zm-32 288c-17.674 0-32-14.328-32-32 0-17.674 14.326-32 32-32s32 14.326 32 32c0 17.672-14.326 32-32 32zm64-96c-17.674 0-32-14.328-32-32 0-17.674 14.326-32 32-32s32 14.326 32 32c0 17.672-14.326 32-32 32z" /></svg>