<svg xmlns="http://www.w3.org/2000/svg" viewBox="0 0 448 448"><path d="M418 180.859C418 81.281 324.688.281 210 .281S2 81.281 2 180.859c0 14.664 9.91 26.879 26.318 36.852.635 1.131 1.139 2.32 2.072 3.305L135.67 331.92C131.1 337.453 128 344.275 128 352v64c0 17.656 14.359 32 32 32h96c17.656 0 32-14.344 32-32v-64c0-6.662-2.521-12.502-6.012-17.629l107.605-113.355c.932-.979 1.434-2.164 2.068-3.289C408.084 207.752 418 195.531 418 180.859zm-226 70.61V320h-24.51c-.602-1.016-1.033-2.107-1.881-3l-72.48-76.375c30 6.338 64.422 9.932 98.871 10.844zM254.391 317c-.848.893-1.279 1.984-1.881 3H224v-68.477c35.775-.736 71.719-4.313 102.883-10.898L254.391 317z" /></svg>