<svg xmlns="http://www.w3.org/2000/svg" viewBox="0 0 448 448"><path d="M443.313 420.688l-160-160C305.885 233.1 320 198.34 320 160 320 71.781 248.219 0 160 0S0 71.781 0 160s71.781 160 160 160c38.34 0 73.1-14.115 100.688-36.688l160 160C423.813 446.438 427.906 448 432 448s8.188-1.563 11.313-4.688c6.25-6.249 6.25-16.374 0-22.624zM184 296h-48v-48h48v48zm35.156-124.531l-28.219 28.25c-4.438 4.594-6.938 11-6.938 17.938V232h-48v-14.344c0-19.469 7.344-37.781 20.719-51.594l28.219-28.219c4.438-4.625 6.938-11.031 6.938-17.969C191.875 102.313 177.563 88 160 88s-31.875 14.313-31.875 31.875v8h-48v-8C80.125 75.844 115.969 40 160 40s79.875 35.844 79.875 79.875c0 19.406-7.344 37.75-20.719 51.594z" /></svg>