<svg xmlns="http://www.w3.org/2000/svg" viewBox="0 0 448 448"><path d="M0 288h192v160H0V288zm224 160h192V288H224v160zM416 96v160H224V96h-32v160H0V96h91.936c-20.08-31.952-7.418-57.994-1.747-66.64 7.248-10.986 20.125-18.736 35.341-21.267 17.971-2.906 36.877 1.594 50.563 12.192 11.722 9.075 23.136 29.878 31.904 49.066 8.768-19.184 20.173-39.984 31.878-49.05 13.28-10.285 30.998-14.72 48.374-12.269 15.594 2.202 29.123 9.731 37.094 20.672 7.899 10.826 19.876 35.786-.745 67.296H416zm-231.28 0c-9.501-22.829-20.938-44.797-28.218-50.422-6.752-5.219-16.221-7.405-25.722-5.92-6.278 1.046-11.594 3.843-13.843 7.28v.003C105.405 64.49 118.624 82.739 133.597 96h51.123zm114.781-48.438c-2.813-3.859-8.845-6.877-15.718-7.859-9.158-1.219-17.846.906-24.31 5.891h-.003c-7.252 5.625-18.689 27.577-28.19 50.406h51.158c21.22-18.595 26.967-34.874 17.063-48.438z" /></svg>