<svg xmlns="http://www.w3.org/2000/svg" viewBox="0 0 448 448"><path d="M286.862 72.239c-4.67-1.934-9.465-2.798-14.196-4.271L261.339.001 186.674 0l-11.317 67.883a163.888 163.888 0 0 0-27.342 11.326L92.012 39.207 39.21 92.002l40.051 56.068c-2.302 4.391-5.088 8.398-7.022 13.068-1.934 4.67-2.797 9.462-4.271 14.196L.001 186.661 0 261.326l67.883 11.317a163.888 163.888 0 0 0 11.326 27.342l-40.001 56.001 52.796 52.799 56.067-40.048c4.391 2.302 8.398 5.088 13.068 7.022 4.67 1.934 9.462 2.797 14.196 4.271l11.326 67.967 74.665.003 11.317-67.883a163.888 163.888 0 0 0 27.342-11.326l56.001 40.001 52.8-52.796-40.049-56.064c2.303-4.395 5.088-8.398 7.024-13.072 1.934-4.67 2.797-9.462 4.271-14.196l67.967-11.326.001-74.664-67.883-11.317a163.888 163.888 0 0 0-11.326-27.342l40.001-56.001-52.796-52.8-56.066 40.047c-4.392-2.302-8.398-5.088-13.068-7.022zM294.795 224c0 39.099-31.696 70.795-70.795 70.795S153.205 263.099 153.205 224s31.696-70.795 70.795-70.795 70.795 31.696 70.795 70.795z" /></svg>