<svg xmlns="http://www.w3.org/2000/svg" viewBox="0 0 448 448"><path d="M448 154c0 3.797-1.391 7.078-4.156 9.844S437.797 168 434 168h-42c-3.797 0-7.078-1.391-9.844-4.156S378 157.797 378 154s1.391-7.078 4.156-9.844S388.203 140 392 140h42c3.797 0 7.078 1.391 9.844 4.156S448 150.203 448 154zM294 70c3.797 0 7.078-1.391 9.844-4.156S308 59.797 308 56V14c0-3.797-1.391-7.078-4.156-9.844S297.797 0 294 0s-7.078 1.391-9.844 4.156S280 10.203 280 14v42c0 3.797 1.391 7.078 4.156 9.844S290.203 70 294 70zm70 28c3.797 0 7.078-1.391 9.844-4.156l56-56C432.609 35.078 434 31.797 434 28s-1.391-7.078-4.156-9.844S423.797 14 420 14s-7.078 1.391-9.844 4.156l-56 56C351.391 76.922 350 80.203 350 84s1.391 7.078 4.156 9.844S360.203 98 364 98zM215.25 58.188c-1.453-1.453-3.141-2.188-5.031-2.188-2.625 0-4.672 1.094-6.125 3.281L2.188 374.063C.734 376.109 0 378.734 0 381.938c0 3.938 1.391 7.297 4.156 10.063L56 443.844C58.766 446.61 62.125 448 66.063 448c3.203 0 5.828-.734 7.875-2.188l64.75-41.563c6.563 9.328 14.906 16.625 25.047 21.875S184.625 434 196 434c9.625 0 18.703-1.828 27.234-5.469s15.969-8.641 22.313-14.984 11.344-13.781 14.984-22.313S266 373.625 266 364h-28c0 5.828-1.094 11.297-3.281 16.406s-5.172 9.547-8.969 13.344-8.234 6.781-13.344 8.969S201.828 406 196 406c-6.563 0-12.828-1.531-18.813-4.594s-10.938-7.219-14.875-12.469l226.406-145.031c2.188-1.453 3.281-3.5 3.281-6.125 0-1.891-.734-3.578-2.188-5.031L215.25 58.188z" /></svg>