<svg xmlns="http://www.w3.org/2000/svg" viewBox="0 0 448 448"><path d="M435.313 299.359C443.781 279.891 448 259.438 448 238c0-14.578-1.844-28.516-5.563-41.781s-9-25.625-15.875-37.078a148.942 148.942 0 0 0-24.594-30.953c-9.563-9.188-20.125-17.063-31.719-23.625s-24.063-11.625-37.406-15.203S305.594 84 291.156 84c-6.563-12.828-14.688-24.469-24.375-34.891-9.719-10.422-20.5-19.25-32.375-26.469C222.5 15.422 209.75 9.844 196.125 5.906 182.469 1.969 168.438 0 154 0c-14.125 0-27.781 1.828-40.906 5.469S87.688 14.297 76.25 21c-11.469 6.703-21.844 14.734-31.188 24.063A154.868 154.868 0 0 0 21 76.234c-6.687 11.454-11.875 23.735-15.531 36.86C1.844 126.219 0 139.859 0 154c0 21.438 4.25 41.859 12.688 61.25 8.469 19.391 20.5 36.391 36.094 50.969L0 364l119.875-59.938c6.125 1.453 12.25 2.484 18.375 3.063s12.344.875 18.594.875c6.563 12.984 14.688 24.641 24.406 35 9.688 10.359 20.469 19.141 32.375 26.359 11.875 7.219 24.625 12.797 38.281 16.734C265.531 390.031 279.563 392 294 392c11.688 0 23.125-1.313 34.344-3.938L448 448l-48.781-97.563c15.625-14.578 27.656-31.609 36.094-51.078zm-223-191.953c-14.813 9.328-27.563 20.672-38.281 34.016s-19.063 28.25-25.063 44.734C143 202.641 140 219.922 140 238c0 14 1.906 27.922 5.688 41.781-4.5-.297-9-.875-13.438-1.75a388.49 388.49 0 0 1-13.25-2.844l-2.625-.656-53.813 26.906c3.5-7 7-13.891 10.5-20.672S80 267.094 83.344 260.094l-15.313-14.219c-12.969-12.25-22.875-26.172-29.75-41.781C31.438 188.484 28 171.797 28 154c0-17.359 3.313-33.688 9.969-49 6.625-15.313 15.625-28.656 27-40.031S89.688 44.594 105 37.953 136.656 28 154 28c10.938 0 21.563 1.344 31.844 4.047s20 6.641 29.188 11.813 17.688 11.453 25.5 18.813a129.068 129.068 0 0 1 20.438 24.828c-17.626 3.937-33.876 10.577-48.657 19.905z" /></svg>