<svg xmlns="http://www.w3.org/2000/svg" viewBox="0 0 448 448"><path d="M441.656 255.156l-26.688-58.844L385.656 132H392v-28H193.594c-5.531 0-10.906 1.063-16.094 3.188a40.922 40.922 0 0 0-13.656 9.063L92.094 188H84c-11.656 0-22.563 2.188-32.688 6.563-10.156 4.375-19.063 10.375-26.688 18.063-7.688 7.625-13.688 16.563-18.063 26.781S0 260.5 0 272v56c0 3.938.719 7.563 2.188 10.938s3.469 6.313 6 8.875c2.563 2.531 5.531 4.563 8.875 6S24.063 356 28 356h35.438c5.094 8.75 11.969 15.625 20.563 20.563S101.938 384 112 384s19.406-2.5 28-7.438S155.469 364.75 160.563 356h154.875c5.094 8.75 11.969 15.625 20.563 20.563S353.938 384 364 384c5.531 0 10.906-.813 16.063-2.406a59.59 59.59 0 0 0 14.438-6.656 56.912 56.912 0 0 0 12.063-10.406 51.74 51.74 0 0 0 8.625-13.781 53.17 53.17 0 0 0 13.563-8.625c4.094-3.594 7.563-7.563 10.375-11.938 2.875-4.375 5.063-9.125 6.563-14.219 1.56-5.094 2.31-10.406 2.31-15.969v-15.969c0-10.062-2.125-19.687-6.344-28.875zm-303.843 83.782a28.902 28.902 0 0 1-6 8.875c-2.563 2.531-5.531 4.563-8.875 6S115.938 356 112 356s-7.594-.75-10.938-2.188-6.313-3.469-8.875-6c-2.531-2.563-4.531-5.5-6-8.875S84 331.938 84 328s.719-7.563 2.188-10.938 3.469-6.313 6-8.875c2.563-2.531 5.531-4.563 8.875-6S108.063 300 112 300s7.594.75 10.938 2.188 6.313 3.469 8.875 6c2.531 2.563 4.531 5.5 6 8.875S140 324.063 140 328s-.719 7.563-2.187 10.938zM252 188H131.688l52.063-51.844c2.781-2.781 6.063-4.156 9.844-4.156H252v56zm28 0v-56h66.063c2.781 0 5.281.75 7.563 2.313 2.25 1.5 3.969 3.5 5.125 6L380.406 188H280zm109.813 150.938a28.902 28.902 0 0 1-6 8.875c-2.563 2.531-5.531 4.563-8.875 6S367.938 356 364 356s-7.594-.75-10.938-2.188-6.313-3.469-8.875-6c-2.531-2.563-4.531-5.5-6-8.875S336 331.938 336 328s.719-7.563 2.188-10.938 3.469-6.313 6-8.875c2.563-2.531 5.531-4.563 8.875-6S360.063 300 364 300s7.594.75 10.938 2.188 6.313 3.469 8.875 6c2.531 2.563 4.531 5.5 6 8.875S392 324.063 392 328s-.719 7.563-2.187 10.938z" /></svg>