<svg xmlns="http://www.w3.org/2000/svg" viewBox="0 0 448 448"><path d="M224 0c-9.444 0-19.306.34-29.583 1.021a332.482 332.482 0 0 0-30.833 3.5c-10.278 1.653-20.417 3.792-30.417 6.417s-19.444 5.785-28.333 9.479c-2.778 1.167-6.481 2.965-11.111 5.396s-9.167 5.201-13.611 8.313c-4.444 3.111-8.241 6.563-11.389 10.354C65.574 48.271 64 52.111 64 56c0 1.556.278 3.014.833 4.375.556 1.361 1.296 2.722 2.222 4.083 3.889 6.222 9.491 11.667 16.806 16.333 7.315 4.667 15.556 8.75 24.722 12.25s18.935 6.465 29.306 8.896 20.741 4.375 31.111 5.833c10.37 1.458 20.278 2.528 29.722 3.208C208.167 111.66 216.593 112 224 112s15.833-.34 25.278-1.021c9.444-.681 19.352-1.75 29.722-3.208 10.37-1.458 20.741-3.403 31.111-5.833s20.139-5.396 29.306-8.896c9.167-3.5 17.361-7.583 24.583-12.25 7.222-4.667 12.87-10.111 16.944-16.333.926-1.361 1.667-2.722 2.222-4.083.556-1.362.834-2.82.834-4.376 0-3.889-1.574-7.729-4.722-11.521-3.148-3.792-6.944-7.243-11.389-10.354a125.308 125.308 0 0 0-13.611-8.313c-4.63-2.431-8.333-4.229-11.111-5.396-8.889-3.694-18.333-6.854-28.333-9.479s-20.139-4.764-30.417-6.417a332.56 332.56 0 0 0-30.833-3.5C243.306.34 233.444 0 224 0zm0 224c9.63 0 19.537-.34 29.722-1.021a333.174 333.174 0 0 0 30.694-3.5 352.27 352.27 0 0 0 30.417-6.271c10-2.528 19.444-5.736 28.333-9.625 2.778-1.167 6.482-2.965 11.111-5.396a125.15 125.15 0 0 0 13.611-8.313c4.444-3.111 8.241-6.563 11.389-10.354 3.149-3.791 4.723-7.631 4.723-11.52v-56.583c-10.556 7.194-22.454 13.222-35.694 18.083-13.241 4.861-27.037 8.75-41.389 11.667-14.352 2.917-28.657 5.007-42.917 6.271-14.259 1.264-27.593 1.896-40 1.896s-25.741-.632-40-1.896-28.565-3.354-42.917-6.271-28.148-6.806-41.389-11.667S74.556 118.611 64 111.417V168c0 3.889 1.574 7.729 4.722 11.521 3.148 3.792 6.944 7.243 11.389 10.354 4.444 3.111 8.981 5.882 13.611 8.313s8.333 4.229 11.111 5.396c8.889 3.889 18.333 7.097 28.333 9.625a352.27 352.27 0 0 0 30.417 6.271 333.213 333.213 0 0 0 30.694 3.5c10.186.68 20.093 1.02 29.723 1.02zm0 112c9.444 0 19.306-.34 29.583-1.021a339.084 339.084 0 0 0 30.972-3.5 348.342 348.342 0 0 0 30.556-6.271c10-2.528 19.352-5.736 28.056-9.625 2.778-1.167 6.482-2.965 11.111-5.396a125.15 125.15 0 0 0 13.611-8.313c4.444-3.111 8.241-6.514 11.389-10.208C382.426 287.972 384 284.083 384 280v-56.583c-10.556 7.389-22.5 13.514-35.833 18.375-13.333 4.861-27.13 8.75-41.389 11.667A359.655 359.655 0 0 1 264 259.584c-14.259 1.167-27.593 1.75-40 1.75s-25.741-.583-40-1.75a359.655 359.655 0 0 1-42.778-6.125c-14.259-2.917-28.056-6.806-41.389-11.667C86.5 236.931 74.556 230.806 64 223.417V280c0 4.083 1.574 7.972 4.722 11.667 3.148 3.694 6.944 7.097 11.389 10.208 4.444 3.111 8.981 5.882 13.611 8.313s8.333 4.229 11.111 5.396c8.704 3.889 18.056 7.097 28.056 9.625 10 2.528 20.185 4.618 30.556 6.271a339.084 339.084 0 0 0 30.972 3.5c10.277.68 20.139 1.02 29.583 1.02zm0 112c9.444 0 19.306-.34 29.583-1.021a339.084 339.084 0 0 0 30.972-3.5 348.342 348.342 0 0 0 30.556-6.271c10-2.528 19.352-5.736 28.056-9.625 2.778-1.167 6.482-2.965 11.111-5.396a125.15 125.15 0 0 0 13.611-8.313c4.444-3.111 8.241-6.514 11.389-10.208C382.426 399.972 384 396.083 384 392v-56.583c-10.556 7.389-22.5 13.514-35.833 18.375-13.333 4.861-27.13 8.75-41.389 11.667A359.655 359.655 0 0 1 264 371.584c-14.259 1.167-27.593 1.75-40 1.75s-25.741-.583-40-1.75a359.655 359.655 0 0 1-42.778-6.125c-14.259-2.917-28.056-6.806-41.389-11.667S74.556 342.806 64 335.417V392c0 4.083 1.574 7.972 4.722 11.667 3.148 3.694 6.944 7.097 11.389 10.208 4.444 3.111 8.981 5.882 13.611 8.313s8.333 4.229 11.111 5.396c8.704 3.889 18.056 7.097 28.056 9.625 10 2.528 20.185 4.618 30.556 6.271a339.084 339.084 0 0 0 30.972 3.5c10.277.68 20.139 1.02 29.583 1.02z" /></svg>