<svg xmlns="http://www.w3.org/2000/svg" viewBox="0 0 448 448"><path d="M175.945 383.926h96.109v48.055c0 4.338-1.586 8.092-4.754 11.264-3.17 3.17-6.924 4.756-11.264 4.756h-64.074c-4.34 0-8.094-1.586-11.264-4.756-3.168-3.172-4.754-6.926-4.754-11.264v-48.055zM356.779 87.584c-7.594-17.521-17.896-32.789-30.912-45.805-13.014-13.014-28.281-23.318-45.803-30.91-6.736-2.92-13.803-4.771-20.885-6.568l-47.162 48.617 98.676 94.75-88.945 84.988-22.15-23.15 64.793-61.9-97.801-93.874L218.729 0c-17.852.629-34.871 3.969-50.793 10.869-17.521 7.592-32.789 17.896-45.803 30.91-13.016 13.016-23.318 28.283-30.912 45.805-7.592 17.52-11.387 36.207-11.387 56.064 0 19.854 3.713 38.084 11.137 54.688 7.426 16.602 18.063 31.912 31.912 45.928 15.018 15.184 26.947 31.537 35.791 49.057 8.846 17.521 14.352 37.043 16.52 58.568h97.613c2.168-21.525 7.674-41.047 16.52-58.568 8.844-17.52 20.773-33.873 35.791-49.057 13.85-14.016 24.486-29.326 31.912-45.928 7.424-16.604 11.137-34.834 11.137-54.688-.001-19.857-3.796-38.544-11.388-56.064z" /></svg>