<svg xmlns="http://www.w3.org/2000/svg" viewBox="0 0 448 448"><path d="M256.573 0c2.165 30.729 9.485 59.731 21.924 86.129 12.439 26.398 29.53 50.524 51.239 72.411 17.7 17.7 31.231 37.423 40.591 59.132 9.36 21.709 14.031 45.19 14.031 70.407 0 22.21-4.17 43.06-12.528 62.515-8.358 19.454-19.794 36.456-34.327 50.989-14.532 14.532-31.535 25.968-50.989 34.326C267.06 444.268 246.21 448 224 448s-43.06-3.732-62.515-12.091c-19.454-8.358-36.456-19.794-50.989-34.326s-25.969-31.535-34.327-50.989c-8.358-19.454-12.528-40.304-12.528-62.515 0-14.371 1.879-28.599 5.638-42.72 3.758-14.121 9.485-27.276 17.163-39.464a273.179 273.179 0 0 0 9.897 18.041c3.597 6.013 7.642 11.4 12.152 16.161 4.51 4.761 9.682 8.608 15.535 11.526 5.852 2.917 12.617 4.385 20.295 4.385 6.676 0 12.94-1.253 18.792-3.758 5.853-2.506 10.935-5.978 15.284-10.398 4.349-4.421 7.803-9.557 10.398-15.409 2.595-5.852 3.884-12.117 3.884-18.792 0-5.512-.877-10.649-2.631-15.41-1.754-4.761-4.224-9.306-7.391-13.656-7.517-10.362-13.19-20.832-17.038-31.445-3.848-10.613-5.763-22.425-5.763-35.454 0-14.032 2.416-27.347 7.266-39.964 4.85-12.618 11.615-23.893 20.295-33.826 8.68-9.933 18.917-18.201 30.693-24.805 11.776-6.604 24.591-10.81 38.461-12.653" /></svg>