<svg xmlns="http://www.w3.org/2000/svg" viewBox="0 0 448 448"><path d="M315.754 144.311c2.537-8.59 4.246-17.281 4.246-26.107 0-21.189-7.117-40.617-18.789-56.514.387-.32.865-.453 1.227-.814L336 27.313c6.25-6.25 6.25-16.375 0-22.625s-16.375-6.25-22.625 0L279.813 38.25c-.412.412-.57.953-.928 1.396C263.303 28.725 244.432 22.203 224 22.203c-20.436 0-39.311 6.527-54.895 17.453-.359-.447-.52-.992-.934-1.406L134.609 4.688c-6.25-6.25-16.375-6.25-22.625 0s-6.25 16.375 0 22.625l33.563 33.563c.365.365.846.5 1.236.822C135.115 77.594 128 97.016 128 118.203c0 8.828 1.707 17.52 4.244 26.107-45.719 30.018-76.082 81.572-76.082 140.229 0 71.904 46.189 135.646 114.963 158.592L185.68 448l8.557-36.496C203.891 414.174 213.801 416 224 416c10.197 0 20.109-1.826 29.764-4.498L262.32 448l14.555-4.869c68.773-22.945 114.963-86.688 114.963-158.592 0-58.656-30.363-110.211-76.084-140.228zM256 224c0-17.674 14.326-32 32-32s32 14.326 32 32c0 17.672-14.326 32-32 32s-32-14.328-32-32zm-96-105.797c0-35.297 28.703-64 64-64 35.281 0 64 28.703 64 64 0 3.648-.559 7.293-1.238 10.932-19.426-7.875-40.547-12.434-62.762-12.434s-43.336 4.559-62.762 12.434c-.679-3.639-1.238-7.283-1.238-10.932zM160 192c17.674 0 32 14.326 32 32 0 17.672-14.326 32-32 32s-32-14.328-32-32c0-17.674 14.326-32 32-32zM96 320c0-17.674 14.326-32 32-32s32 14.326 32 32c0 17.672-14.326 32-32 32s-32-14.328-32-32zm105.625 59.98L224 284.539l22.375 95.443a84.149 84.149 0 0 1-44.75-.002zM320 352c-17.674 0-32-14.328-32-32 0-17.674 14.326-32 32-32s32 14.326 32 32c0 17.672-14.326 32-32 32z" /></svg>