<svg xmlns="http://www.w3.org/2000/svg" viewBox="0 0 448 448"><path d="M443.137 420.095L199.796 176.199l36.672-36.581-74.994-75.268-94.445 94.469 74.994 75.013 34.461-34.376 243.618 243.679c3.241 3.244 7.081 4.864 11.518 4.864s8.276-1.62 11.518-4.864c3.243-3.242 4.863-7.082 4.863-11.52s-1.621-8.278-4.864-11.52zM177.298 35.685l87.826 87.85c3.329 1.849 6.964 2.775 10.91 2.775 3.205 0 6.257-.586 9.153-1.759a22.825 22.825 0 0 0 7.672-5.085l1.471-1.285c4.561-4.562 6.842-10.11 6.842-16.646 0-3.206-.585-6.258-1.756-9.156a22.865 22.865 0 0 0-5.086-7.674L216.303 6.658a21.77 21.77 0 0 0-7.674-4.993C205.732.555 202.683 0 199.478 0a24.86 24.86 0 0 0-8.968 1.665 21.76 21.76 0 0 0-7.674 4.993l-1.471 1.288c-4.561 4.56-6.842 10.11-6.842 16.644 0 1.973.247 3.885.741 5.734a28.179 28.179 0 0 0 2.034 5.361zm-57.494 223.218l-78.026-78.045a21.715 21.715 0 0 0-7.674-4.993c-2.897-1.11-5.946-1.665-9.151-1.665a24.86 24.86 0 0 0-8.968 1.665 21.706 21.706 0 0 0-7.674 4.993l-1.471 1.285C2.279 186.706 0 192.254 0 198.789c0 1.971.245 3.883.738 5.732a28.248 28.248 0 0 0 2.034 5.364L90.6 297.733c3.327 1.851 6.964 2.775 10.908 2.775 3.205 0 6.257-.586 9.153-1.757a22.83 22.83 0 0 0 7.672-5.087l1.471-1.285c4.561-4.562 6.842-10.11 6.842-16.644 0-3.208-.585-6.258-1.756-9.156a22.903 22.903 0 0 0-5.086-7.676zM224 448H0v-32h224v32zM32 352h160v32H32v-32" /></svg>